<svg xmlns="http://www.w3.org/2000/svg" viewBox="0 0 128 128" role="img" aria-label="URL Picker icon">
  <rect width="128" height="128" rx="26" fill="#0b7cff"/>
  <rect x="24" y="76" width="80" height="34" rx="10" fill="#ffffff" stroke="#061a3d" stroke-width="6"/>
  <text x="64" y="101" text-anchor="middle" font-family="Arial, Helvetica, sans-serif" font-size="28" font-weight="800" fill="#061a3d">URL</text>
  <path d="M70 21c10 1 15 7 14 16l-1 13 14-9c8-5 17 2 14 11-1 3-3 5-6 7L86 73c-8 6-15 7-23 3l-17-8c-5-2-7-7-5-12s7-7 12-5l8 4 1-23c0-7 3-11 8-11z" fill="#ffffff" stroke="#061a3d" stroke-width="6" stroke-linejoin="round"/>
  <path d="M67 31l-1 29" fill="none" stroke="#d9e5f5" stroke-width="5" stroke-linecap="round"/>
</svg>
